<?xml version="1.0" encoding="utf-8"?>
<!-- Generator: Adobe Illustrator 24.2.1, SVG Export Plug-In . SVG Version: 6.00 Build 0)  -->
<svg version="1.1" id="Layer_1" xmlns="http://www.w3.org/2000/svg" xmlns:xlink="http://www.w3.org/1999/xlink" x="0px" y="0px"
	 viewBox="0 0 900 900" style="enable-background:new 0 0 900 900;" xml:space="preserve">
<style type="text/css">
	.st0{fill:none;stroke:#000000;stroke-width:40;stroke-miterlimit:10;}
	.st1{clip-path:url(#SVGID_2_);}
	.st2{fill:#322C4A;}
	.st3{fill:#3E375E;}
	.st4{fill:none;stroke:#E0DEF0;stroke-width:10;stroke-miterlimit:10;}
	.st5{fill:#E0DEF0;}
</style>
<g id="Angry_Eye_1_">
	<g id="Bomb_15_">
		<g>
			<g id="Bomb_16_">
				<path id="Outline_15_" class="st0" d="M439.82,249.02c79.47-29.67,172.44-12.54,236.32,51.38
					c87.62,87.68,87.44,228.78-0.39,316.24c-87.28,86.91-228.48,86.79-315.61-0.34c-63.88-63.88-80.99-156.82-51.33-236.27
					c2.18-5.84,0.8-12.42-3.61-16.83l-18.56-18.56c-11.44-11.44-11.44-29.99,0-41.43l38.18-38.18L363,226.85
					c11.44-11.44,29.99-11.44,41.43,0l18.56,18.56C427.4,249.81,433.97,251.2,439.82,249.02z"/>
				<g id="Wick_8_">
					<path class="st0" d="M177.5,249.91l31.75-10c42.27-13.31,88.44-2,119.77,29.33l17,17.01"/>
					<circle cx="178.26" cy="249.68" r="20"/>
				</g>
				<g id="Shade_18_">
					<defs>
						<path id="SVGID_1_" d="M439.82,249.02c79.47-29.67,172.44-12.54,236.32,51.38c87.62,87.68,87.44,228.78-0.39,316.24
							c-87.28,86.91-228.48,86.79-315.61-0.34c-63.88-63.88-80.99-156.82-51.33-236.27c2.18-5.84,0.8-12.42-3.61-16.83l-18.56-18.56
							c-11.44-11.44-11.44-29.99,0-41.43l38.18-38.18L363,226.85c11.44-11.44,29.99-11.44,41.43,0l18.56,18.56
							C427.4,249.81,433.97,251.2,439.82,249.02z"/>
					</defs>
					<clipPath id="SVGID_2_">
						<use xlink:href="#SVGID_1_"  style="overflow:visible;"/>
					</clipPath>
					<g id="Shade_19_" class="st1">
						<path id="Dark_Shade_11_" class="st2" d="M439.82,249.02c78.72-29.39,170.69-12.86,234.51,49.59c0.6,0.59,1.21,1.19,1.81,1.79
							c8.62,8.62,16.38,17.76,23.3,27.31c63.44,87.6,55.51,210.07-23.69,288.93c-87.28,86.91-228.48,86.79-315.61-0.34
							c-1.45-1.45-2.88-2.92-4.29-4.4c-50.51-53.32-69.73-125.43-57.65-193.05c2.35-13.17,5.89-26.16,10.61-38.81
							c2.18-5.84,0.8-12.42-3.61-16.83l-18.56-18.56c-11.44-11.44-11.44-29.99,0-41.43l38.18-38.18L363,226.85
							c11.44-11.44,29.99-11.44,41.43,0l18.56,18.56C427.4,249.81,433.97,251.2,439.82,249.02z"/>
						<circle id="Mid_Shade_10_" class="st3" cx="429.9" cy="351.57" r="270.58"/>
					</g>
				</g>
				<path id="Light_Outline_8_" class="st4" d="M439.82,249.02c79.47-29.67,172.44-12.54,236.32,51.38
					c87.62,87.68,87.44,228.78-0.39,316.24c-87.28,86.91-228.48,86.79-315.61-0.34c-63.88-63.88-80.99-156.82-51.33-236.27
					c2.18-5.84,0.8-12.42-3.61-16.83l-18.56-18.56c-11.44-11.44-11.44-29.99,0-41.43l38.18-38.18L363,226.85
					c11.44-11.44,29.99-11.44,41.43,0l18.56,18.56C427.4,249.81,433.97,251.2,439.82,249.02z"/>
			</g>
		</g>
	</g>
	<g id="Face_Details_8_">
		<g>
			<g>
				<path class="st5" d="M619.56,408.36c-0.68-1.56-1.42-3.1-2.19-4.62c-1.67-3.17-0.54-6.54,2.98-7.54
					c12.53-3.47,26.84-5.4,42.63-4.47c4.43,0.23,8.56,4.16,8.72,8.5c0.1,2.04,0.14,4.08,0.12,6.13c-0.07,4.37-3.58,7.17-7.35,6.56
					c-13.72-2.13-26.21-1.54-37.13,0.45C624.33,413.9,621.05,411.66,619.56,408.36z"/>
				<path class="st5" d="M536.74,359.35c-1.88,0.13-3.77,0.31-5.67,0.56c-4.01,0.58-4.14-2.78,0.15-7.67
					c15.42-17.32,34.52-32.68,57.05-44.79c6.27-3.44,15.11-4.53,19.16-2.52c1.92,0.92,3.8,1.89,5.66,2.91
					c3.92,2.21,1.68,5.93-4.45,8.4c-22.08,9.07-41.17,21.36-57.01,35.57C547.2,355.72,540.72,359.02,536.74,359.35z"/>
				<path class="st5" d="M563.87,328.79L563.87,328.79c7.38-5.56,18.7-8.3,24.2-6.09c33.43,12.57,57.29,40.91,63.87,74.27
					c1.05,5.57-2.85,9.96-7.74,10.13l0,0c-4.92,0.16-9.68-3.56-11.56-8.49c-10.76-30.03-37.52-52.84-71.31-58.41
					C555.76,339.4,556.47,334.35,563.87,328.79z"/>
			</g>
		</g>
		<g>
			<path class="st5" d="M452.35,538.41c38.48,19.01,78.36,47.79,107.11,69.87c2.43,1.88,4.34,0.49,4.37-3.04
				c0.1-18.6,0.38-37.21,0.74-55.81c0.06-3.53,2.56-4.94,5.55-3.17c14.36,8.53,28.15,16.64,40.51,23.17
				c2.55,1.35,5.11-0.31,5.72-3.61c2.47-13.66,3.97-27.28,4.43-40.87c0.1-3.3,2.61-4.58,5.67-2.94
				c13.63,7.33,26.92,13.76,39.18,18.38c2.72,1.02,5.45-0.38,6-2.97c6.25-30.36-3.34-60.18-29.95-89.46
				c-1.1-1.21-1.56-1.82-1.27-1.67c0,0,0,0,0,0c0.89,0.55,9.58,8.29,13.47,11.93c30.26,29.67,37.83,60.08,24.3,91.21
				c-1.08,2.41-3.91,4.02-6.26,3.43c-10.59-2.69-22.65-7.6-35.49-13.82c-2.88-1.4-5.48-0.02-5.85,3.18
				c-1.57,13.18-4.37,26.39-8.33,39.65c-0.98,3.2-3.51,5.03-5.67,3.96c-10.51-5.18-22.96-12.41-36.47-20.53
				c-2.82-1.69-5.27-0.24-5.42,3.29c-0.86,18.58-1.96,37.16-3.17,55.76c-0.26,3.53-1.96,5.05-3.96,3.3
				c-26.07-22.62-69.3-56.79-112.89-80.38c-5.51-3-9.53-8.75-6.26-9.64c0,0,0,0,0,0C449.36,537.37,450.78,537.64,452.35,538.41z"/>
			<path class="st4" d="M452.35,538.41c38.48,19.01,78.36,47.79,107.11,69.87c2.43,1.88,4.34,0.49,4.37-3.04
				c0.1-18.6,0.38-37.21,0.74-55.81c0.06-3.53,2.56-4.94,5.55-3.17c14.36,8.53,28.15,16.64,40.51,23.17
				c2.55,1.35,5.11-0.31,5.72-3.61c2.47-13.66,3.97-27.28,4.43-40.87c0.1-3.3,2.61-4.58,5.67-2.94
				c13.63,7.33,26.92,13.76,39.18,18.38c2.72,1.02,5.45-0.38,6-2.97c6.25-30.36-3.34-60.18-29.95-89.46
				c-1.1-1.21-1.56-1.82-1.27-1.67c0,0,0,0,0,0c0.89,0.55,9.58,8.29,13.47,11.93c30.26,29.67,37.83,60.08,24.3,91.21
				c-1.08,2.41-3.91,4.02-6.26,3.43c-10.59-2.69-22.65-7.6-35.49-13.82c-2.88-1.4-5.48-0.02-5.85,3.18
				c-1.57,13.18-4.37,26.39-8.33,39.65c-0.98,3.2-3.51,5.03-5.67,3.96c-10.51-5.18-22.96-12.41-36.47-20.53
				c-2.82-1.69-5.27-0.24-5.42,3.29c-0.86,18.58-1.96,37.16-3.17,55.76c-0.26,3.53-1.96,5.05-3.96,3.3
				c-26.07-22.62-69.3-56.79-112.89-80.38c-5.51-3-9.53-8.75-6.26-9.64c0,0,0,0,0,0C449.36,537.37,450.78,537.64,452.35,538.41z"/>
		</g>
		<g>
			<g>
				<path class="st5" d="M320.44,433.76C320.44,433.76,320.44,433.76,320.44,433.76c2.72-9.91,15.02-14.73,25.48-12.26
					c65.45,14.09,110.15-3.83,140.34-17.26c5.08-2.17,13.52-2.37,19.49-1.69c0,0,0,0,0,0c5.92,0.69,6.69,4.05,0.91,8.66
					c-33.84,25.78-87.68,53.18-165.98,44.4C327.68,454.17,317.67,443.67,320.44,433.76z"/>
				<path class="st5" d="M439.21,439.24c1.9-0.57,3.78-1.16,5.62-1.77c6.74-2.15,14.58-0.83,18.59,2.66
					c17.45,16.12,42.07,23.61,68.91,19.34c5.97-1.11,4.9,5.19-3.71,14.38c-2.34,2.45-4.73,4.86-7.19,7.25
					c-9.05,8.96-22.46,15.28-28.45,14.01c-26.84-4.89-48.96-20.39-62.08-42.89C428.03,447.1,432.3,441.26,439.21,439.24z"/>
			</g>
		</g>
	</g>
</g>
</svg>
